<svg xmlns="http://www.w3.org/2000/svg" viewBox="0 0 533.5 544.3" width="20" height="20">
  <path fill="#4285F4" d="M533.5 278.4c0-17.4-1.4-34-4-50.1H272.1v94.8h147.4c-6.4 34.4-25.9 63.5-55.1 83v68h88.8c52.1-48 80.3-118.6 80.3-195.7z"></path>
  <path fill="#34A853" d="M272.1 544.3c74.7 0 137.4-24.8 183.1-67.1l-88.8-68c-24.6 16.5-56.1 26.2-94.3 26.2-72.5 0-133.9-48.7-155.9-114.1H25.8v71.7C74 487 164.2 544.3 272.1 544.3z"></path>
  <path fill="#FBBC04" d="M116.2 321.3c-10.8-32.4-10.8-67.6 0-100l-.1-71.7H25.8c-33.1 66.2-33.1 145.8 0 211.9l90.4-40.2z"></path>
  <path fill="#EA4335" d="M272.1 107.7c39.2 0 74.5 13.5 102.3 40.1l76.4-76.4C407.6 24.5 344.8 0 272.1 0 164.2 0 74 57.3 25.8 150.7l90.4 71.7c21.9-65.5 83.4-114.7 155.9-114.7z"></path>
</svg>
